<mxfile host="app.diagrams.net" modified="2023-06-28T12:39:16.137Z" agent="Mozilla/5.0 (Windows NT 10.0; Win64; x64) AppleWebKit/537.36 (KHTML, like Gecko) Chrome/114.0.0.0 Safari/537.36 Edg/114.0.1823.58" etag="nVrYGvCLzhThigwzZ3gJ" version="21.5.0" type="github">
  <diagram name="第 1 页" id="bnim70iv4dQA_bCJrnJs">
    <mxGraphModel dx="2019" dy="1156" grid="1" gridSize="10" guides="1" tooltips="1" connect="1" arrows="1" fold="1" page="1" pageScale="1" pageWidth="2000" pageHeight="1400" math="0" shadow="0">
      <root>
        <mxCell id="0" />
        <mxCell id="1" parent="0" />
        <mxCell id="kNxnwsr2kqk0C8-2MLcr-14" style="rounded=0;orthogonalLoop=1;jettySize=auto;html=1;exitX=0.5;exitY=1;exitDx=0;exitDy=0;entryX=0.5;entryY=0;entryDx=0;entryDy=0;" parent="1" source="223TXKhGHbjzBC68XGqH-1" target="kNxnwsr2kqk0C8-2MLcr-3" edge="1">
          <mxGeometry relative="1" as="geometry" />
        </mxCell>
        <mxCell id="kNxnwsr2kqk0C8-2MLcr-15" style="rounded=0;orthogonalLoop=1;jettySize=auto;html=1;exitX=0.5;exitY=1;exitDx=0;exitDy=0;" parent="1" source="223TXKhGHbjzBC68XGqH-1" target="kNxnwsr2kqk0C8-2MLcr-1" edge="1">
          <mxGeometry relative="1" as="geometry" />
        </mxCell>
        <mxCell id="kNxnwsr2kqk0C8-2MLcr-26" style="edgeStyle=orthogonalEdgeStyle;rounded=0;orthogonalLoop=1;jettySize=auto;html=1;exitX=0.5;exitY=1;exitDx=0;exitDy=0;entryX=0.5;entryY=0;entryDx=0;entryDy=0;" parent="1" source="223TXKhGHbjzBC68XGqH-1" target="kNxnwsr2kqk0C8-2MLcr-25" edge="1">
          <mxGeometry relative="1" as="geometry">
            <Array as="points">
              <mxPoint x="738" y="585" />
            </Array>
          </mxGeometry>
        </mxCell>
        <mxCell id="223TXKhGHbjzBC68XGqH-1" value="RunGame" style="rounded=0;whiteSpace=wrap;html=1;fontFamily=Verdana;fontSize=18;" parent="1" vertex="1">
          <mxGeometry x="680" y="300" width="116" height="50" as="geometry" />
        </mxCell>
        <mxCell id="kNxnwsr2kqk0C8-2MLcr-57" style="edgeStyle=orthogonalEdgeStyle;rounded=0;orthogonalLoop=1;jettySize=auto;html=1;exitX=0.25;exitY=1;exitDx=0;exitDy=0;entryX=0;entryY=0.5;entryDx=0;entryDy=0;" parent="1" source="kNxnwsr2kqk0C8-2MLcr-1" target="kNxnwsr2kqk0C8-2MLcr-56" edge="1">
          <mxGeometry relative="1" as="geometry">
            <Array as="points">
              <mxPoint x="580" y="545" />
              <mxPoint x="580" y="840" />
            </Array>
          </mxGeometry>
        </mxCell>
        <mxCell id="Hju6dRllPQrABKdtRstx-2" style="edgeStyle=orthogonalEdgeStyle;rounded=0;orthogonalLoop=1;jettySize=auto;html=1;exitX=0.25;exitY=1;exitDx=0;exitDy=0;entryX=0;entryY=0.5;entryDx=0;entryDy=0;" edge="1" parent="1" source="kNxnwsr2kqk0C8-2MLcr-1" target="Hju6dRllPQrABKdtRstx-1">
          <mxGeometry relative="1" as="geometry">
            <Array as="points">
              <mxPoint x="550" y="545" />
              <mxPoint x="550" y="950" />
            </Array>
          </mxGeometry>
        </mxCell>
        <mxCell id="kNxnwsr2kqk0C8-2MLcr-1" value="Game" style="rounded=0;whiteSpace=wrap;html=1;fontFamily=Verdana;fontSize=18;" parent="1" vertex="1">
          <mxGeometry x="540" y="495" width="116" height="50" as="geometry" />
        </mxCell>
        <mxCell id="kNxnwsr2kqk0C8-2MLcr-43" style="edgeStyle=orthogonalEdgeStyle;rounded=0;orthogonalLoop=1;jettySize=auto;html=1;exitX=0.5;exitY=1;exitDx=0;exitDy=0;entryX=1;entryY=0.5;entryDx=0;entryDy=0;" parent="1" source="kNxnwsr2kqk0C8-2MLcr-3" target="kNxnwsr2kqk0C8-2MLcr-25" edge="1">
          <mxGeometry relative="1" as="geometry" />
        </mxCell>
        <mxCell id="kNxnwsr2kqk0C8-2MLcr-55" style="edgeStyle=orthogonalEdgeStyle;rounded=0;orthogonalLoop=1;jettySize=auto;html=1;exitX=0;exitY=0.5;exitDx=0;exitDy=0;" parent="1" source="kNxnwsr2kqk0C8-2MLcr-4" edge="1">
          <mxGeometry relative="1" as="geometry">
            <mxPoint x="940" y="520" as="targetPoint" />
          </mxGeometry>
        </mxCell>
        <mxCell id="kNxnwsr2kqk0C8-2MLcr-4" value="Render3D" style="rounded=0;whiteSpace=wrap;html=1;fontFamily=Verdana;fontSize=18;" parent="1" vertex="1">
          <mxGeometry x="1060" y="495" width="116" height="50" as="geometry" />
        </mxCell>
        <mxCell id="kNxnwsr2kqk0C8-2MLcr-49" style="edgeStyle=orthogonalEdgeStyle;rounded=0;orthogonalLoop=1;jettySize=auto;html=1;" parent="1" source="kNxnwsr2kqk0C8-2MLcr-5" target="kNxnwsr2kqk0C8-2MLcr-4" edge="1">
          <mxGeometry relative="1" as="geometry" />
        </mxCell>
        <mxCell id="kNxnwsr2kqk0C8-2MLcr-5" value="Textrue" style="rounded=0;whiteSpace=wrap;html=1;fontFamily=Verdana;fontSize=18;" parent="1" vertex="1">
          <mxGeometry x="1260" y="495" width="116" height="50" as="geometry" />
        </mxCell>
        <mxCell id="kNxnwsr2kqk0C8-2MLcr-37" style="edgeStyle=orthogonalEdgeStyle;rounded=0;orthogonalLoop=1;jettySize=auto;html=1;exitX=0.5;exitY=1;exitDx=0;exitDy=0;entryX=0;entryY=0.5;entryDx=0;entryDy=0;" parent="1" source="kNxnwsr2kqk0C8-2MLcr-7" target="kNxnwsr2kqk0C8-2MLcr-1" edge="1">
          <mxGeometry relative="1" as="geometry" />
        </mxCell>
        <mxCell id="kNxnwsr2kqk0C8-2MLcr-7" value="InputHandler" style="rounded=0;whiteSpace=wrap;html=1;fontFamily=Verdana;fontSize=18;" parent="1" vertex="1">
          <mxGeometry x="370" y="310" width="150" height="50" as="geometry" />
        </mxCell>
        <mxCell id="kNxnwsr2kqk0C8-2MLcr-47" style="edgeStyle=orthogonalEdgeStyle;rounded=0;orthogonalLoop=1;jettySize=auto;html=1;exitX=0.5;exitY=1;exitDx=0;exitDy=0;" parent="1" source="kNxnwsr2kqk0C8-2MLcr-11" target="kNxnwsr2kqk0C8-2MLcr-4" edge="1">
          <mxGeometry relative="1" as="geometry" />
        </mxCell>
        <mxCell id="kNxnwsr2kqk0C8-2MLcr-11" value="Render" style="rounded=1;whiteSpace=wrap;html=1;fontSize=18;" parent="1" vertex="1">
          <mxGeometry x="1058" y="285" width="120" height="60" as="geometry" />
        </mxCell>
        <mxCell id="Hju6dRllPQrABKdtRstx-12" style="edgeStyle=orthogonalEdgeStyle;rounded=0;orthogonalLoop=1;jettySize=auto;html=1;exitX=1;exitY=0.5;exitDx=0;exitDy=0;" edge="1" parent="1" source="kNxnwsr2kqk0C8-2MLcr-13" target="Hju6dRllPQrABKdtRstx-10">
          <mxGeometry relative="1" as="geometry" />
        </mxCell>
        <mxCell id="kNxnwsr2kqk0C8-2MLcr-13" value="Start" style="ellipse;whiteSpace=wrap;html=1;fontSize=18;" parent="1" vertex="1">
          <mxGeometry x="240" y="50" width="120" height="80" as="geometry" />
        </mxCell>
        <mxCell id="kNxnwsr2kqk0C8-2MLcr-31" style="edgeStyle=orthogonalEdgeStyle;rounded=0;orthogonalLoop=1;jettySize=auto;html=1;exitX=0;exitY=0.5;exitDx=0;exitDy=0;entryX=0.5;entryY=1;entryDx=0;entryDy=0;" parent="1" source="kNxnwsr2kqk0C8-2MLcr-25" target="kNxnwsr2kqk0C8-2MLcr-1" edge="1">
          <mxGeometry relative="1" as="geometry" />
        </mxCell>
        <mxCell id="kNxnwsr2kqk0C8-2MLcr-53" style="rounded=0;orthogonalLoop=1;jettySize=auto;html=1;exitX=0;exitY=1;exitDx=0;exitDy=0;" parent="1" source="kNxnwsr2kqk0C8-2MLcr-25" target="kNxnwsr2kqk0C8-2MLcr-44" edge="1">
          <mxGeometry relative="1" as="geometry" />
        </mxCell>
        <mxCell id="kNxnwsr2kqk0C8-2MLcr-25" value="Game Loop" style="ellipse;whiteSpace=wrap;html=1;aspect=fixed;fontSize=20;" parent="1" vertex="1">
          <mxGeometry x="638" y="600" width="200" height="200" as="geometry" />
        </mxCell>
        <mxCell id="kNxnwsr2kqk0C8-2MLcr-30" style="edgeStyle=orthogonalEdgeStyle;rounded=0;orthogonalLoop=1;jettySize=auto;html=1;exitX=1;exitY=0.5;exitDx=0;exitDy=0;entryX=1;entryY=0.5;entryDx=0;entryDy=0;" parent="1" source="kNxnwsr2kqk0C8-2MLcr-29" target="kNxnwsr2kqk0C8-2MLcr-5" edge="1">
          <mxGeometry relative="1" as="geometry" />
        </mxCell>
        <mxCell id="kNxnwsr2kqk0C8-2MLcr-29" value="File" style="shape=parallelogram;perimeter=parallelogramPerimeter;whiteSpace=wrap;html=1;fixedSize=1;fontSize=18;" parent="1" vertex="1">
          <mxGeometry x="1460" y="490" width="120" height="60" as="geometry" />
        </mxCell>
        <mxCell id="kNxnwsr2kqk0C8-2MLcr-33" value="Tick()" style="text;html=1;align=center;verticalAlign=middle;resizable=0;points=[];autosize=1;strokeColor=none;fillColor=none;fontSize=18;" parent="1" vertex="1">
          <mxGeometry x="600" y="580" width="70" height="40" as="geometry" />
        </mxCell>
        <mxCell id="kNxnwsr2kqk0C8-2MLcr-44" value="FPS" style="text;html=1;align=center;verticalAlign=middle;resizable=0;points=[];autosize=1;strokeColor=none;fillColor=none;fontSize=18;" parent="1" vertex="1">
          <mxGeometry x="600" y="785" width="60" height="40" as="geometry" />
        </mxCell>
        <mxCell id="kNxnwsr2kqk0C8-2MLcr-3" value="Screen" style="rounded=0;whiteSpace=wrap;html=1;fontFamily=Verdana;fontSize=18;" parent="1" vertex="1">
          <mxGeometry x="820" y="495" width="116" height="50" as="geometry" />
        </mxCell>
        <mxCell id="kNxnwsr2kqk0C8-2MLcr-54" value="render()" style="text;html=1;align=center;verticalAlign=middle;resizable=0;points=[];autosize=1;strokeColor=none;fillColor=none;fontSize=18;" parent="1" vertex="1">
          <mxGeometry x="790" y="565" width="90" height="40" as="geometry" />
        </mxCell>
        <mxCell id="kNxnwsr2kqk0C8-2MLcr-58" style="edgeStyle=orthogonalEdgeStyle;rounded=0;orthogonalLoop=1;jettySize=auto;html=1;exitX=1;exitY=0.5;exitDx=0;exitDy=0;entryX=0.5;entryY=1;entryDx=0;entryDy=0;" parent="1" source="kNxnwsr2kqk0C8-2MLcr-56" target="kNxnwsr2kqk0C8-2MLcr-4" edge="1">
          <mxGeometry relative="1" as="geometry" />
        </mxCell>
        <mxCell id="kNxnwsr2kqk0C8-2MLcr-56" value="Control" style="rounded=0;whiteSpace=wrap;html=1;fontSize=18;" parent="1" vertex="1">
          <mxGeometry x="700" y="810" width="120" height="60" as="geometry" />
        </mxCell>
        <mxCell id="kNxnwsr2kqk0C8-2MLcr-59" value="" style="endArrow=classic;html=1;rounded=0;" parent="1" edge="1">
          <mxGeometry width="50" height="50" relative="1" as="geometry">
            <mxPoint x="250" y="330" as="sourcePoint" />
            <mxPoint x="370" y="330" as="targetPoint" />
          </mxGeometry>
        </mxCell>
        <mxCell id="Hju6dRllPQrABKdtRstx-6" style="edgeStyle=orthogonalEdgeStyle;rounded=0;orthogonalLoop=1;jettySize=auto;html=1;exitX=1;exitY=0.5;exitDx=0;exitDy=0;entryX=0.75;entryY=1;entryDx=0;entryDy=0;" edge="1" parent="1" source="Hju6dRllPQrABKdtRstx-1" target="kNxnwsr2kqk0C8-2MLcr-4">
          <mxGeometry relative="1" as="geometry" />
        </mxCell>
        <mxCell id="Hju6dRllPQrABKdtRstx-1" value="Level(关卡)" style="rounded=0;whiteSpace=wrap;html=1;fontSize=18;" vertex="1" parent="1">
          <mxGeometry x="700" y="920" width="120" height="60" as="geometry" />
        </mxCell>
        <mxCell id="Hju6dRllPQrABKdtRstx-3" value="Block" style="rounded=0;whiteSpace=wrap;html=1;fontSize=18;" vertex="1" parent="1">
          <mxGeometry x="700" y="1180" width="120" height="60" as="geometry" />
        </mxCell>
        <mxCell id="Hju6dRllPQrABKdtRstx-7" style="edgeStyle=orthogonalEdgeStyle;rounded=0;orthogonalLoop=1;jettySize=auto;html=1;entryX=0.5;entryY=1;entryDx=0;entryDy=0;exitX=0.5;exitY=0;exitDx=0;exitDy=0;" edge="1" parent="1" source="Hju6dRllPQrABKdtRstx-3" target="Hju6dRllPQrABKdtRstx-4">
          <mxGeometry relative="1" as="geometry">
            <mxPoint x="760" y="1170" as="sourcePoint" />
          </mxGeometry>
        </mxCell>
        <mxCell id="Hju6dRllPQrABKdtRstx-9" style="edgeStyle=orthogonalEdgeStyle;rounded=0;orthogonalLoop=1;jettySize=auto;html=1;exitX=0.5;exitY=0;exitDx=0;exitDy=0;entryX=0.5;entryY=1;entryDx=0;entryDy=0;" edge="1" parent="1" source="Hju6dRllPQrABKdtRstx-4" target="Hju6dRllPQrABKdtRstx-1">
          <mxGeometry relative="1" as="geometry" />
        </mxCell>
        <mxCell id="Hju6dRllPQrABKdtRstx-4" value="SolidBlock" style="rounded=0;whiteSpace=wrap;html=1;fontSize=18;" vertex="1" parent="1">
          <mxGeometry x="700" y="1050" width="120" height="60" as="geometry" />
        </mxCell>
        <mxCell id="Hju6dRllPQrABKdtRstx-8" value="System" style="rhombus;whiteSpace=wrap;html=1;fontSize=18;" vertex="1" parent="1">
          <mxGeometry x="170" y="290" width="80" height="80" as="geometry" />
        </mxCell>
        <mxCell id="Hju6dRllPQrABKdtRstx-13" style="edgeStyle=orthogonalEdgeStyle;rounded=0;orthogonalLoop=1;jettySize=auto;html=1;exitX=1;exitY=0.5;exitDx=0;exitDy=0;entryX=0;entryY=0.5;entryDx=0;entryDy=0;" edge="1" parent="1" source="Hju6dRllPQrABKdtRstx-10" target="Hju6dRllPQrABKdtRstx-11">
          <mxGeometry relative="1" as="geometry" />
        </mxCell>
        <mxCell id="Hju6dRllPQrABKdtRstx-10" value="Display" style="rounded=0;whiteSpace=wrap;html=1;fontSize=18;" vertex="1" parent="1">
          <mxGeometry x="480" y="60" width="120" height="60" as="geometry" />
        </mxCell>
        <mxCell id="Hju6dRllPQrABKdtRstx-15" style="edgeStyle=orthogonalEdgeStyle;rounded=0;orthogonalLoop=1;jettySize=auto;html=1;exitX=0.5;exitY=1;exitDx=0;exitDy=0;entryX=0.5;entryY=0;entryDx=0;entryDy=0;" edge="1" parent="1" source="Hju6dRllPQrABKdtRstx-11" target="Hju6dRllPQrABKdtRstx-14">
          <mxGeometry relative="1" as="geometry" />
        </mxCell>
        <mxCell id="Hju6dRllPQrABKdtRstx-11" value="Launcher" style="rounded=0;whiteSpace=wrap;html=1;fontSize=18;" vertex="1" parent="1">
          <mxGeometry x="678" y="60" width="120" height="60" as="geometry" />
        </mxCell>
        <mxCell id="Hju6dRllPQrABKdtRstx-16" style="edgeStyle=orthogonalEdgeStyle;rounded=0;orthogonalLoop=1;jettySize=auto;html=1;exitX=0.5;exitY=1;exitDx=0;exitDy=0;entryX=0.5;entryY=0;entryDx=0;entryDy=0;" edge="1" parent="1" source="Hju6dRllPQrABKdtRstx-14" target="223TXKhGHbjzBC68XGqH-1">
          <mxGeometry relative="1" as="geometry" />
        </mxCell>
        <mxCell id="Hju6dRllPQrABKdtRstx-14" value="play" style="rounded=0;whiteSpace=wrap;html=1;fontSize=18;" vertex="1" parent="1">
          <mxGeometry x="678" y="180" width="120" height="60" as="geometry" />
        </mxCell>
      </root>
    </mxGraphModel>
  </diagram>
</mxfile>
